<?xml version="1.0" encoding="UTF-8"?><svg xmlns="http://www.w3.org/2000/svg" xmlns:xlink="http://www.w3.org/1999/xlink" version="1.1" id="Layer_1" x="0px" y="0px" viewBox="0 0 29 29" xml:space="preserve"><style type="text/css">.st0{fill:none;stroke:#000000;stroke-width:2;stroke-miterlimit:10;} .st1{fill:none;stroke:#000000;stroke-width:2;stroke-linecap:round;stroke-linejoin:round;stroke-miterlimit:10;} .st2{fill:none;stroke:#000000;stroke-miterlimit:10;} .st3{fill:none;stroke:#000000;stroke-width:2;stroke-miterlimit:10;stroke-dasharray:1.7411,1.7411;} .st4{fill:none;stroke:#000000;stroke-width:2;stroke-linecap:round;stroke-linejoin:round;stroke-dasharray:2.0261,4.0522;} .st5{fill:#606060;} .st6{stroke:#000000;stroke-miterlimit:10;}</style><path d="M20.5 27.5h-12c-1.654 0-3-1.346-3-3v-20c0-1.654 1.346-3 3-3h12c1.654 0 3 1.346 3 3v20c0 1.654-1.346 3-3 3zm-12-24a1 1 0 0 0-1 1v20a1 1 0 0 0 1 1h12a1 1 0 0 0 1-1v-20a1 1 0 0 0-1-1h-12z"/><circle cx="10.5" cy="18.5" r="1"/><circle cx="14.5" cy="18.5" r="1"/><path d="M14.167 23.5h-3.333a1 1 0 0 1 0-2h3.333a1 1 0 0 1 0 2z"/><circle cx="18.5" cy="22.5" r="1"/><circle cx="18.5" cy="18.5" r="1"/><circle cx="10.5" cy="14.5" r="1"/><circle cx="14.5" cy="14.5" r="1"/><circle cx="18.5" cy="14.5" r="1"/><path d="M17.5 11.5h-6c-1.103 0-2-.897-2-2v-2c0-1.103.897-2 2-2l5.964-.031c1.107 0 2.005.897 2.005 2v2c0 1.12-.883 2.031-1.969 2.031zm-.031-4.031l-5.964.031-.005 2h6l-.031-.031v-2z"/><metadata><rdf:RDF xmlns:rdf="http://www.w3.org/1999/02/22-rdf-syntax-ns#" xmlns:rdfs="http://www.w3.org/2000/01/rdf-schema#" xmlns:dc="http://purl.org/dc/elements/1.1/"><rdf:Description about="https://iconscout.com/legal#licenses" dc:title="calculator,calc,calculation,operation" dc:description="calculator,calc,calculation,operation" dc:publisher="Iconscout" dc:date="2017-10-03" dc:format="image/svg+xml" dc:language="en"><dc:creator><rdf:Bag><rdf:li>Jemis Mali</rdf:li></rdf:Bag></dc:creator></rdf:Description></rdf:RDF></metadata></svg>