<svg xmlns="http://www.w3.org/2000/svg" enable-background="new 0 0 48 48" viewBox="0 0 48 48"><path d="M29,30c0,0.552-0.448,1-1,1c-0.552,0-1-0.448-1-1c0-0.552,0.448-1,1-1C28.552,29,29,29.448,29,30z M21,29
		c-0.552,0-1,0.448-1,1c0,0.552,0.448,1,1,1c0.552,0,1-0.448,1-1C22,29.448,21.552,29,21,29z M36,8v32c0,2.206-1.794,4-4,4H16
		c-2.206,0-4-1.794-4-4V8c0-2.206,1.794-4,4-4h16C34.206,4,36,5.794,36,8z M19.387,6l0.333,1h8.559l0.333-1H19.387z M34,8
		c0-1.103-0.897-2-2-2h-1.279l-0.544,1.633C29.904,8.45,29.141,9,28.279,9h-8.559c-0.862,0-1.625-0.55-1.897-1.367L17.279,6H16
		c-1.103,0-2,0.897-2,2v32c0,1.103,0.897,2,2,2h16c1.103,0,2-0.897,2-2V8z M20.469,20H31l-0.02,2.196l-0.839,4.196
		C29.955,27.324,29.13,28,28.18,28h-6.378c-0.945,0-1.748-0.645-1.952-1.566L18.198,19H16v-2h3.802L20.469,20z M20.914,22l0.889,4
		h6.378l0.8-4H20.914z"/></svg>